<?xml version="1.0" encoding="UTF-8"?>
<svg id="_Слой_1" data-name="Слой 1" xmlns="http://www.w3.org/2000/svg" viewBox="0 0 6330 965.84">
  <defs>
    <style>
      .cls-1 {
        fill: #fff;
      }
    </style>
  </defs>
  <path class="cls-1" d="M3647.26,483.23c0,133.17-53.98,253.73-141.25,341-87.27,87.27-207.83,141.25-341,141.25s-253.73-53.98-341-141.25c-87.27-87.27-141.25-207.83-141.25-341s53.98-253.73,141.25-341C2911.28,54.96,3031.85.98,3165.02.98s253.73,53.98,341,141.25c87.27,87.27,141.25,207.83,141.25,341Z"/>
  <path class="cls-1" d="M421.77,142.59C334.5,55.32,213.94,1.35,80.77,1.35,53.24,1.35,26.27,3.69,0,8.12c100.81,17,191,65.25,260.23,134.48,87.27,87.27,141.25,207.83,141.25,341s-53.98,253.73-141.25,341C191,893.83,100.81,942.07,0,959.07c26.27,4.43,53.24,6.77,80.77,6.77,133.17,0,253.73-53.98,341-141.25,87.27-87.27,141.25-207.83,141.25-341s-53.98-253.73-141.25-341Z"/>
  <path class="cls-1" d="M1291.96,141.99C1204.69,54.72,1084.13.74,950.96.74c-73.48,0-143.11,16.46-205.45,45.86,50.63,23.88,96.44,56.27,135.56,95.39,87.27,87.27,141.25,207.83,141.25,341s-53.98,253.73-141.25,341c-39.11,39.11-84.93,71.51-135.56,95.39,62.33,29.4,131.96,45.86,205.45,45.86,133.17,0,253.73-53.98,341-141.25,87.27-87.27,141.25-207.83,141.25-341s-53.98-253.73-141.25-341Z"/>
  <path class="cls-1" d="M2320.76,141.99C2233.49,54.72,2112.93.74,1979.76.74c-125.42,0-239.65,47.89-325.42,126.37,5.3,4.85,10.5,9.8,15.58,14.88,87.27,87.27,141.25,207.83,141.25,341s-53.98,253.73-141.25,341c-5.08,5.08-10.28,10.03-15.58,14.88,85.77,78.48,200,126.37,325.42,126.37,133.17,0,253.73-53.98,341-141.25,87.27-87.27,141.25-207.83,141.25-341s-53.98-253.73-141.25-341Z"/>
  <g>
    <path class="cls-1" d="M5908.23,141.85C5995.5,54.58,6116.06.61,6249.23.61c27.53,0,54.5,2.34,80.77,6.77-100.81,17-191,65.25-260.23,134.48-87.27,87.27-141.25,207.83-141.25,341,0,133.17,53.98,253.73,141.25,341,69.23,69.23,159.43,117.48,260.23,134.48-26.27,4.43-53.24,6.77-80.77,6.77-133.17,0-253.73-53.98-341-141.25-87.27-87.27-141.25-207.83-141.25-341,0-133.17,53.98-253.73,141.25-341Z"/>
    <path class="cls-1" d="M5038.04,141.25C5125.31,53.98,5245.87,0,5379.04,0c73.48,0,143.11,16.46,205.45,45.86-50.63,23.88-96.44,56.27-135.56,95.39-87.27,87.27-141.25,207.83-141.25,341,0,133.17,53.98,253.73,141.25,341,39.11,39.11,84.93,71.51,135.56,95.39-62.33,29.4-131.96,45.86-205.45,45.86-133.17,0-253.73-53.98-341-141.25-87.27-87.27-141.25-207.83-141.25-341,0-133.17,53.98-253.73,141.25-341Z"/>
    <path class="cls-1" d="M4009.24,141.25C4096.51,53.98,4217.07,0,4350.24,0c125.42,0,239.65,47.89,325.42,126.37-5.3,4.85-10.5,9.8-15.58,14.88-87.27,87.27-141.25,207.83-141.25,341,0,133.17,53.98,253.73,141.25,341,5.08,5.08,10.28,10.03,15.58,14.88-85.77,78.48-200,126.37-325.42,126.37-133.17,0-253.73-53.98-341-141.25-87.27-87.27-141.25-207.83-141.25-341,0-133.17,53.98-253.73,141.25-341Z"/>
  </g>
</svg>